<?xml version="1.0" encoding="utf-8"?>
<!-- Generator: Adobe Illustrator 24.0.2, SVG Export Plug-In . SVG Version: 6.00 Build 0)  -->
<svg version="1.1" id="Layer_1" xmlns="http://www.w3.org/2000/svg" xmlns:xlink="http://www.w3.org/1999/xlink" x="0px" y="0px"
	 viewBox="0 0 841.9 595.3" style="enable-background:new 0 0 841.9 595.3;" xml:space="preserve">
<style type="text/css">
	.st0{fill:#61DAFB;}
	.st1{fill:#21759B;}
	.st2{fill:#E34F26;}
	.st3{fill:#EF652A;}
	.st4{fill:#FFFFFF;}
	.st5{fill:#E9CA32;}
	.st6{fill:#FFDE25;}
	.st7{fill:#1B73BA;}
	.st8{fill:#1C88C7;}
</style>
<g>
	<path class="st0" d="M590.3,262.2c0-21-26.3-40.9-66.5-53.2c9.3-41,5.2-73.7-13-84.2c-4.2-2.5-9.1-3.6-14.5-3.6v14.4
		c3,0,5.4,0.6,7.4,1.7c8.8,5,12.6,24.2,9.6,48.9c-0.7,6.1-1.9,12.5-3.3,19c-12.6-3.1-26.5-5.5-41-7c-8.7-11.9-17.7-22.8-26.8-32.3
		c21-19.6,40.8-30.3,54.2-30.3v-14.4c-17.7,0-41,12.6-64.5,34.6c-23.5-21.8-46.7-34.3-64.5-34.3v14.4c13.4,0,33.2,10.6,54.2,30.1
		c-9,9.5-18.1,20.3-26.7,32.2c-14.6,1.5-28.4,3.9-41,7.1c-1.5-6.5-2.6-12.7-3.4-18.7c-3-24.7,0.7-43.8,9.4-48.9
		c1.9-1.2,4.5-1.7,7.4-1.7v-14.4c-5.4,0-10.3,1.2-14.6,3.6c-18.1,10.5-22.2,43-12.8,84c-40.1,12.4-66.3,32.2-66.3,53.1
		c0,21,26.3,40.9,66.5,53.2c-9.3,41-5.2,73.7,13,84.2c4.2,2.5,9.1,3.6,14.5,3.6c17.7,0,41-12.6,64.5-34.6
		c23.5,21.8,46.7,34.3,64.5,34.3c5.4,0,10.3-1.2,14.6-3.6c18.1-10.5,22.2-43,12.8-84C564.2,303,590.3,283.1,590.3,262.2L590.3,262.2
		z M506.3,219.2c-2.4,8.3-5.4,16.9-8.7,25.5c-2.6-5.2-5.4-10.3-8.5-15.5c-3-5.2-6.1-10.2-9.3-15.1
		C489,215.4,497.9,217.1,506.3,219.2L506.3,219.2z M476.8,287.9c-5,8.7-10.2,17-15.6,24.7c-9.6,0.8-19.4,1.3-29.2,1.3
		c-9.7,0-19.5-0.5-29-1.2c-5.4-7.7-10.6-15.9-15.6-24.5c-4.9-8.5-9.4-17-13.4-25.7c4-8.6,8.5-17.3,13.4-25.7
		c5-8.7,10.2-17,15.6-24.7c9.6-0.8,19.4-1.3,29.2-1.3c9.7,0,19.5,0.5,29,1.2c5.4,7.7,10.6,15.9,15.6,24.5c4.9,8.5,9.4,17,13.4,25.7
		C486,270.8,481.6,279.4,476.8,287.9L476.8,287.9z M497.6,279.5c3.5,8.6,6.5,17.3,8.9,25.7c-8.5,2.1-17.4,3.8-26.6,5.2
		c3.2-5,6.3-10.1,9.3-15.3C492.2,289.9,495,284.7,497.6,279.5L497.6,279.5z M432.2,348.3c-6-6.2-12-13.1-17.9-20.7
		c5.8,0.3,11.7,0.5,17.7,0.5c6.1,0,12.1-0.1,17.9-0.5C444.1,335.2,438.1,342.2,432.2,348.3z M384.1,310.3c-9.2-1.4-18-3-26.5-5.1
		c2.4-8.3,5.4-16.9,8.7-25.5c2.6,5.2,5.4,10.3,8.5,15.5C377.9,300.4,381,305.4,384.1,310.3z M431.8,176c6,6.2,12,13.1,17.9,20.7
		c-5.8-0.3-11.7-0.5-17.7-0.5c-6.1,0-12.1,0.1-17.9,0.5C419.9,189.1,425.9,182.2,431.8,176z M384.1,214.1c-3.2,5-6.3,10.1-9.3,15.3
		c-3,5.2-5.7,10.3-8.4,15.5c-3.5-8.6-6.5-17.3-8.9-25.7C365.9,217.2,374.9,215.4,384.1,214.1L384.1,214.1z M325.7,294.9
		c-22.8-9.7-37.6-22.5-37.6-32.7c0-10.1,14.8-23,37.6-32.7c5.5-2.4,11.6-4.5,17.9-6.5c3.7,12.6,8.5,25.8,14.5,39.3
		c-5.9,13.4-10.7,26.5-14.3,39.1C337.4,299.4,331.3,297.2,325.7,294.9L325.7,294.9z M360.4,387.1c-8.8-5-12.6-24.2-9.6-48.9
		c0.7-6.1,1.9-12.5,3.3-19c12.6,3.1,26.5,5.5,41,7c8.7,11.9,17.7,22.8,26.8,32.3c-21,19.6-40.8,30.3-54.2,30.3
		C364.8,388.7,362.3,388.2,360.4,387.1L360.4,387.1z M513.5,337.9c3,24.7-0.7,43.8-9.4,48.9c-1.9,1.2-4.5,1.7-7.4,1.7
		c-13.4,0-33.2-10.6-54.2-30.1c9-9.5,18.1-20.3,26.7-32.2c14.6-1.5,28.4-3.9,41-7.1C511.6,325.6,512.8,331.9,513.5,337.9z
		 M538.3,294.9c-5.5,2.4-11.6,4.5-17.9,6.5c-3.7-12.6-8.5-25.8-14.5-39.3c5.9-13.4,10.7-26.5,14.3-39.1c6.4,2,12.5,4.2,18.1,6.6
		c22.8,9.7,37.6,22.5,37.6,32.7C575.9,272.3,561.2,285.2,538.3,294.9L538.3,294.9z"/>
	<circle class="st0" cx="432" cy="262.2" r="29.5"/>
	<path class="st0" d="M496.2,121.3"/>
</g>
<path d="M66.5,226.5c-0.3,0-1.3,0.1-2.2,0.2c-20.2,1.8-39.1,12.7-51.1,29.5c-6.7,9.3-10.9,19.9-12.6,31.1c-0.6,3.9-0.6,5.1-0.6,10.4
	s0.1,6.5,0.6,10.4c3.9,26.7,22.9,49.2,48.7,57.5c4.6,1.5,9.5,2.5,15,3.1c2.2,0.2,11.5,0.2,13.6,0c9.6-1.1,17.7-3.4,25.6-7.5
	c1.2-0.6,1.5-0.8,1.3-0.9c-0.1-0.1-5.3-7.1-11.6-15.5l-11.4-15.4l-14.3-21.1c-7.8-11.6-14.3-21.1-14.4-21.1c-0.1,0-0.1,9.4-0.1,20.8
	c0,20-0.1,20.8-0.3,21.3c-0.4,0.7-0.6,1-1.2,1.3c-0.4,0.2-0.8,0.3-2.9,0.3h-2.4l-0.6-0.4c-0.4-0.3-0.7-0.6-0.9-1l-0.3-0.6l0-27.9
	l0-27.9l0.4-0.5c0.2-0.3,0.7-0.7,1-0.8c0.6-0.3,0.8-0.3,3.2-0.3c2.8,0,3.3,0.1,4,0.9c0.2,0.2,7.9,11.9,17.2,25.9
	c9.2,14,21.9,33.1,28.1,42.5l11.3,17.1l0.6-0.4c5-3.3,10.4-8,14.6-12.8c9-10.3,14.8-22.9,16.7-36.4c0.6-3.9,0.6-5.1,0.6-10.4
	s-0.1-6.5-0.6-10.4c-3.9-26.7-22.9-49.2-48.7-57.5c-4.5-1.5-9.4-2.5-14.8-3.1C76.8,226.6,67.6,226.4,66.5,226.5L66.5,226.5z
	 M95.6,269.6c0.7,0.3,1.2,1,1.4,1.6c0.1,0.4,0.1,8.1,0.1,25.5l0,25l-4.4-6.8l-4.4-6.8V290c0-11.8,0.1-18.4,0.1-18.7
	c0.2-0.8,0.7-1.4,1.4-1.8c0.6-0.3,0.8-0.3,3-0.3C94.8,269.3,95.2,269.3,95.6,269.6L95.6,269.6z"/>
<path class="st1" d="M764.6,369.3c-39.7,0-71.9-31.6-71.6-71.6s30.4-71.6,71.6-71.6c41.2,0,71.6,32.2,71.6,71.6
	S804.3,369.3,764.6,369.3z M785.8,358.2l-20.3-54.6l-19.1,55.8C760.4,362.7,770,363.6,785.8,358.2L785.8,358.2z M736.3,355.2
	L705.8,272c-4.2,9-5.1,16.4-5.7,25.7C700.4,322.1,714.2,344.5,736.3,355.2z M828.8,297.6c0.3-15.8-6.9-28.4-7.5-30.1
	c0.6,12.2-1.2,18.5-3.3,25.4l-20.9,60c26.3-15.8,31.3-39.4,31.9-55.2H828.8L828.8,297.6z M762.5,295l-10.1-27.8l-7.5-0.6
	c-3-2.1-1.2-5.4,0.9-5.4c13.4,0.9,20.9,0.9,34.3,0c3.3,0,4.2,4.8,0.3,5.4l-7.2,0.6l23.3,68.6l11-37.6c0.6-16.4-3.9-18.2-9.8-30.1
	c-4.8-9.3,0.3-18.2,9.6-18.5c-7.5-7.2-22.7-16.1-42.7-16.4c-20-0.3-41.2,9.8-53.7,28.9l22.1-0.6c2.7,1.2,1.5,5.1,0,5.4l-7.8,0.6
	l23.3,69.8L762.5,295L762.5,295z"/>
<path class="st2" d="M284,557.2l-8-97.5l95.2,0.2l-8.4,97.3L324,568.5L284,557.2z"/>
<path class="st3" d="M324,559v-90l39.2,0.1l-7,80.5L324,559z"/>
<path class="st4" d="M352.4,491.5l1.1-11.9h-60.3l3.3,36.5h41.6l-1.6,15.6l-13.3,3.6l-13.5-3.9l-0.7-9.3h-12l1.6,19l24.6,6.9
	l24.8-6.9l3.3-37h-43.7l-1.2-12.5H352.4z"/>
<path class="st5" d="M392.8,555.5l-7.8-95.7l93.5,0.2l-8.3,95.5l-38.1,11L392.8,555.5z"/>
<path class="st6" d="M432.1,557.3v-88.4l38.5,0.1l-6.9,79.1L432.1,557.3z"/>
<g>
	<path class="st4" d="M428,479.4h-10.2v58.8l-7.9-1.5v-7.9l-9.4-1.5V545l27.5,7.2V479.4z M435.6,479.4h28.2l-1.9,11.3h-15.5v18.5
		h15.5l-1.9,37.4l-24.4,5.7v-11.7l16.5-5.7l1-15.5l-17.5,2.5V479.4z"/>
</g>
<path class="st7" d="M500.3,557.1l-8-98.1l95.9,0.2l-8.5,97.9l-39.1,11.3L500.3,557.1z"/>
<path class="st8" d="M540.6,559v-90.6l39.5,0.1l-7,81.1L540.6,559z"/>
<path class="st4" d="M570.2,480h-60.7l1.6,11.8H540L511.6,504l1.6,11.4H555l-1.5,16l-14.1,2.8l-12.8-3.3l-1-9.1h-11.8l1.6,18.9
	l25.3,7l24.2-7.7l3.1-36.9h-25.6l27.9-11.6L570.2,480z"/>
</svg>
